<svg width="24" height="24" viewBox="0 0 24 24" fill="none" xmlns="http://www.w3.org/2000/svg">
<path d="M8.26653 13.5111L9.38135 14.7815L8.47393 15.7148V18.0481L8.18875 18.2556L5.93318 16.0519L8.26653 13.5111Z" fill="#D9D9D9"/>
<path d="M8.44811 15.7408L9.38145 14.7815L10.937 16.4667L8.44811 18.0482V15.7408Z" fill="#E5E5E5"/>
<path d="M10.2111 20.2L10.937 16.4667L8.18885 18.2296L10.2111 20.2Z" fill="#191818"/>
<path d="M12.1038 20.9L12.4668 19.837L10.5742 18.1519L10.2112 20.2L11.7668 21.8074L12.1038 20.9Z" fill="#414141"/>
<path d="M10.5738 18.1519L10.9368 16.4667L12.5701 17.8926L13.6072 18.8778L12.4664 19.837L10.5738 18.1519Z" fill="#C4C4C4"/>
<path d="M14.3336 21.4183L14.6965 18.1257L13.6076 18.8776L12.4928 19.8368L14.1521 21.5739L14.3336 21.4183Z" fill="#262626"/>
<path d="M14.8777 17.5814H15.1888L16.7703 19.137L14.3332 21.3925L14.6962 18.1259L14.8777 17.5814Z" fill="#56595C"/>
<path d="M12.5443 17.8724L13.6073 18.8777L14.6962 18.1259L14.8777 17.5814L12.5443 17.8724Z" fill="#D9D9D9"/>
<path d="M10.9372 16.4668L12.5706 15.2742V17.8927L10.9372 16.4668Z" fill="#2A2929"/>
<path d="M15.1887 17.5816L12.6739 15.1964L12.5702 15.2742V17.6335L15.1887 17.5816Z" fill="#1C1B1B"/>
<path d="M5.93324 16.052L8.00732 13.7705H5.44064L4.9999 15.1446L5.93324 16.052Z" fill="#171616"/>
<path d="M7.20363 11.9296L6.374 10.1407L5.44066 13.7704H8.03327L8.2666 13.5111L7.20363 11.9296Z" fill="#D9D9D9"/>
<path d="M10.7556 13.5889L9.48524 11.8778L7.20374 11.9297L8.31856 13.5889L9.38153 14.7815L10.7556 13.5889Z" fill="#3E3B3B"/>
<path d="M10.8591 9.93337L10.4702 9.51855V9.88152L9.40727 10.5297L9.45912 11.8778H9.61468L10.8591 9.93337Z" fill="#262626"/>
<path d="M10.7556 13.5889L12.6223 11.8259L9.48526 11.8778L10.7556 13.5889Z" fill="#D9D9D9"/>
<path d="M9.61489 11.8778L10.8593 9.93335L12.6223 11.8259L9.61489 11.8778Z" fill="#C3C3C3"/>
<path d="M13.3223 9.51848L10.4186 6.69255L12.6223 6.66663L13.7112 8.79255L13.8408 9.51848H13.3223Z" fill="#D9D9D9"/>
<path d="M7.56659 6.66663L7.35918 7.85922L8.34437 8.92218L10.4185 6.66663H7.56659Z" fill="#A9A8A8"/>
<path d="M8.44807 4.28149L7.56659 6.66668H10.4185L8.44807 4.28149Z" fill="#D9D9D9"/>
<path d="M11.5333 5.08519L10.0815 2L8.44811 4.28148L10.4444 6.66667H12.5444L11.5333 5.08519Z" fill="#1D1D1D"/>
<path d="M16.5115 2.02588L16.4078 7.3407L13.8152 4.95551L16.5115 2.02588Z" fill="#1D1D1D"/>
<path d="M15.7595 6.66675L13.8669 4.98157L11.5595 5.1112L12.5965 6.66675H15.7595Z" fill="#D9D9D9"/>
<path d="M16.9779 11.6704L17.2891 9.54443L16.0446 10.5815L16.9779 11.6704Z" fill="#8E8D8D"/>
<path d="M16.0446 10.5815L17.2891 9.54443H16.0446V10.5815Z" fill="white"/>
<path d="M14.0742 10.5815H16.0446L18.8311 13.7445H16.8224L14.0742 10.5815Z" fill="#121212"/>
<path d="M16.0443 9.54448V10.5815H14.0739L13.8406 9.51855L16.0443 9.54448Z" fill="#1C1C1C"/>
<path d="M13.8411 9.51855L14.0745 10.6074H13.893L12.5448 10.063L11.767 9.51855H13.8411Z" fill="white"/>
<path d="M19 13.9259L18.8444 13.7444H16.8222L16.7963 14.2111L17.4704 15.5851L19 13.9259Z" fill="#1D1D1D"/>
<path d="M17.4461 15.5852L17.1332 15.9222H15.5776L12.622 14.8074V11.8259L14.0739 10.6074L16.8221 13.7445L16.7961 14.2371L17.4461 15.5852Z" fill="#D9D9D9"/>
<path d="M16.4073 7.31477L15.7851 6.66663H12.6221L13.711 8.79255L13.8406 9.49255L14.0739 10.6074H16.0702V9.54441H17.2888L17.3147 8.89626L16.4073 7.31477Z" fill="#1A1B1B"/>
<path d="M14.0745 10.6074L12.6226 11.826L10.4707 9.51855H11.767L12.5448 10.063L13.893 10.6074H14.0745Z" fill="#8E8D8D"/>
<path d="M10.4702 9.51848L10.3924 6.66663L13.2961 9.51848H10.4702Z" fill="#48494B"/>
<path d="M8.34427 8.92218L10.3924 6.66663L10.4702 9.88144L9.64058 10.4L8.34427 8.92218Z" fill="#808285"/>
<path d="M12.6223 14.8074V11.8259L10.7556 13.5889L12.2334 14.7556L12.6223 14.8074Z" fill="#A5A2A2"/>
<path d="M8.00728 8.53333L9.64062 10.4L7.20357 11.9296L6.29616 9.93333L8.00728 8.53333Z" fill="#1D1D1D"/>
<path d="M9.48511 11.9038L9.40733 10.5557L7.20361 11.9297L9.48511 11.9038Z" fill="#D9D9D9"/>
<path d="M12.2331 14.7555L10.7553 13.5889L9.38121 14.7815L10.9368 16.4666L12.6738 15.1963L12.2331 14.7555Z" fill="#68696A"/>
</svg>
