<svg width="297" height="420" viewBox="0 0 297 420" fill="none" xmlns="http://www.w3.org/2000/svg">
<path d="M69.2666 244.084L92.9054 271.021L73.6646 290.812V340.288L67.6174 344.686L19.7902 297.958L69.2666 244.084Z" fill="#D9D9D9"/>
<path d="M73.1149 291.361L92.9055 271.021L125.89 306.754L73.1149 340.288V291.361Z" fill="#E5E5E5"/>
<path d="M110.497 385.916L125.89 306.754L67.6175 344.136L110.497 385.916Z" fill="#191818"/>
<path d="M150.628 400.759L158.324 378.22L118.193 342.487L110.497 385.916L143.481 420L150.628 400.759Z" fill="#414141"/>
<path d="M118.193 342.487L125.89 306.754L160.523 336.989L182.513 357.88L158.324 378.22L118.193 342.487Z" fill="#C4C4C4"/>
<path d="M197.906 411.754L205.603 341.937L182.514 357.88L158.875 378.22L194.058 415.052L197.906 411.754Z" fill="#262626"/>
<path d="M209.45 330.393H216.047L249.581 363.377L197.906 411.204L205.602 341.937L209.45 330.393Z" fill="#56595C"/>
<path d="M159.973 336.563L182.512 357.879L205.601 341.937L209.449 330.393L159.973 336.563Z" fill="#D9D9D9"/>
<path d="M125.89 306.754L160.524 281.466V336.989L125.89 306.754Z" fill="#2A2929"/>
<path d="M216.047 330.393L162.722 279.817L160.523 281.466V331.492L216.047 330.393Z" fill="#1C1B1B"/>
<path d="M19.7906 297.958L63.7697 249.581H9.34556L1.14441e-05 278.717L19.7906 297.958Z" fill="#171616"/>
<path d="M46.7279 210.55L29.1363 172.618L9.34574 249.581H64.3196L69.2672 244.084L46.7279 210.55Z" fill="#D9D9D9"/>
<path d="M122.042 245.733L95.1049 209.45L46.728 210.55L70.3667 245.733L92.906 271.021L122.042 245.733Z" fill="#3E3B3B"/>
<path d="M124.24 168.22L115.994 159.424V167.121L93.455 180.864L94.5545 209.45H97.8529L124.24 168.22Z" fill="#262626"/>
<path d="M122.042 245.733L161.623 208.351L95.1048 209.45L122.042 245.733Z" fill="#D9D9D9"/>
<path d="M97.8535 209.45L124.241 168.22L161.623 208.351L97.8535 209.45Z" fill="#C3C3C3"/>
<path d="M176.465 159.424L114.895 99.5025L161.622 98.9528L184.711 144.031L187.46 159.424H176.465Z" fill="#D9D9D9"/>
<path d="M54.4244 98.9528L50.0265 124.241L70.9166 146.78L114.896 98.9528H54.4244Z" fill="#A9A8A8"/>
<path d="M73.1155 48.377L54.4244 98.9529H114.896L73.1155 48.377Z" fill="#D9D9D9"/>
<path d="M138.534 65.4188L107.749 0L73.1151 48.377L115.445 98.9529H159.974L138.534 65.4188Z" fill="#1D1D1D"/>
<path d="M244.084 0.549805L241.885 113.246L186.911 62.6702L244.084 0.549805Z" fill="#1D1D1D"/>
<path d="M228.141 98.9529L188.01 63.2199L139.083 65.9686L161.073 98.9529H228.141Z" fill="#D9D9D9"/>
<path d="M253.978 205.052L260.575 159.974L234.188 181.963L253.978 205.052Z" fill="#8E8D8D"/>
<path d="M234.188 181.963L260.575 159.974H234.188V181.963Z" fill="white"/>
<path d="M192.408 181.963H234.188L293.272 249.031H250.68L192.408 181.963Z" fill="#121212"/>
<path d="M234.189 159.974V181.963H192.409L187.461 159.424L234.189 159.974Z" fill="#1C1C1C"/>
<path d="M187.461 159.424L192.408 182.513H188.56L159.974 170.969L143.482 159.424H187.461Z" fill="white"/>
<path d="M296.859 252.88L293.56 249.031H250.681L250.131 258.927L264.424 288.063L296.859 252.88Z" fill="#1D1D1D"/>
<path d="M263.913 288.063L257.277 295.209H224.293L161.623 271.571V208.351L192.408 182.513L250.68 249.031L250.131 259.476L263.913 288.063Z" fill="#D9D9D9"/>
<path d="M241.884 112.696L228.691 98.9528H161.622L184.712 144.031L187.46 158.874L192.408 182.513H234.738V159.974H260.575L261.125 146.23L241.884 112.696Z" fill="#1A1B1B"/>
<path d="M192.408 182.513L161.623 208.351L115.995 159.424H143.482L159.974 170.969L188.56 182.513H192.408Z" fill="#8E8D8D"/>
<path d="M115.995 159.424L114.345 98.9528L175.916 159.424H115.995Z" fill="#48494B"/>
<path d="M70.9157 146.78L114.345 98.9528L115.994 167.12L98.4026 178.115L70.9157 146.78Z" fill="#808285"/>
<path d="M161.623 271.571V208.351L122.042 245.733L153.377 270.471L161.623 271.571Z" fill="#A5A2A2"/>
<path d="M63.769 138.534L98.4025 178.115L46.7271 210.55L27.4862 168.22L63.769 138.534Z" fill="#1D1D1D"/>
<path d="M95.1046 210L93.4554 181.414L46.7276 210.55L95.1046 210Z" fill="#D9D9D9"/>
<path d="M153.377 270.471L122.042 245.733L92.906 271.021L125.89 306.754L162.723 279.817L153.377 270.471Z" fill="#68696A"/>
</svg>
